# Blender 4.3.2
# www.blender.org
mtllib bookPage.mtl
o Cube
v -0.154444 0.092393 0.240391
v -0.151372 0.075401 0.240391
v -0.154444 0.092393 -0.240391
v -0.151372 0.075401 -0.240391
v -0.370020 0.053413 0.240391
v -0.366947 0.036421 0.240391
v -0.370020 0.053413 -0.240391
v -0.366947 0.036421 -0.240391
v -0.025945 0.069374 0.240391
v -0.029184 0.052555 0.240992
v -0.026681 0.069374 -0.241127
v -0.036279 0.052555 -0.241127
v -0.155102 0.092207 0.240391
v -0.158075 0.075389 0.240391
v -0.154406 0.091408 -0.239898
v -0.158075 0.075389 -0.240391
v 0.009240 0.030724 0.240391
v -0.003105 0.019246 0.240391
v 0.009240 0.030724 -0.240391
v -0.003105 0.019246 -0.240391
v -0.027565 0.070310 0.240391
v -0.039910 0.058833 0.240391
v -0.027565 0.070310 -0.240391
v -0.039910 0.058833 -0.240391
vn 0.9840 0.1779 -0.0000
vn -0.0000 -0.0000 -1.0000
vn -0.9840 -0.1779 -0.0000
vn -0.0000 -0.0000 1.0000
vn -0.1779 0.9840 -0.0000
vn 0.1779 -0.9840 -0.0000
vn 0.9342 -0.3567 -0.0076
vn -0.0048 0.0170 -0.9998
vn -0.9801 0.1983 -0.0009
vn 0.0008 0.0177 0.9998
vn 0.1721 0.9851 -0.0008
vn -0.1792 -0.9838 0.0013
vn 0.6809 -0.7324 -0.0000
vn -0.6809 0.7324 -0.0000
vn 0.7324 0.6809 -0.0000
vn -0.7324 -0.6809 -0.0000
vt 0.363880 0.024803
vt 0.613880 0.024803
vt 0.613880 0.274803
vt 0.363880 0.274803
vt 0.613880 0.524803
vt 0.363880 0.524803
vt 0.613880 0.774803
vt 0.363880 0.774803
vt 0.613880 1.024803
vt 0.363880 1.024803
vt 0.631541 1.007450
vt 0.008506 1.013466
vt 0.010480 -0.013880
vt 0.623259 -0.012814
vt 0.863880 0.524803
vt 0.863880 0.774803
vt 0.921218 0.994433
vt 0.623275 1.004573
vt 0.626229 -0.005274
vt 0.916488 0.000594
vt 0.998610 0.993370
vt 0.914768 0.998618
vt 0.925148 0.000129
vt 0.998383 0.003229
s 0
usemtl PageMaterial.001
f 1/1/1 2/2/1 4/3/1 3/4/1
f 3/4/2 4/3/2 8/5/2 7/6/2
f 7/6/3 8/5/3 6/7/3 5/8/3
f 5/8/4 6/7/4 2/9/4 1/10/4
f 3/11/5 7/12/5 5/13/5 1/14/5
f 8/5/6 4/15/6 2/16/6 6/7/6
f 9/1/7 10/2/7 12/3/7 11/4/7
f 11/4/8 12/3/8 16/5/8 15/6/8
f 15/6/9 16/5/9 14/7/9 13/8/9
f 13/8/10 14/7/10 10/9/10 9/10/10
f 11/17/11 15/18/11 13/19/11 9/20/11
f 16/5/12 12/15/12 10/16/12 14/7/12
f 17/1/13 18/2/13 20/3/13 19/4/13
f 19/4/2 20/3/2 24/5/2 23/6/2
f 23/6/14 24/5/14 22/7/14 21/8/14
f 21/8/4 22/7/4 18/9/4 17/10/4
f 19/21/15 23/22/15 21/23/15 17/24/15
f 24/5/16 20/15/16 18/16/16 22/7/16
